<svg id="Layer_1" data-name="Layer 1" xmlns="http://www.w3.org/2000/svg" xmlns:xlink="http://www.w3.org/1999/xlink" viewBox="0 0 256.87 306.9"><defs><style>.cls-1,.cls-21,.cls-27{fill:#fff;}.cls-2{fill:#42a6c2;}.cls-22,.cls-23,.cls-24,.cls-3,.cls-4,.cls-5,.cls-6,.cls-7,.cls-8,.cls-9{fill-rule:evenodd;}.cls-3{fill:url(#linear-gradient);}.cls-4{fill:url(#linear-gradient-2);}.cls-5{fill:url(#New_Gradient_Swatch_3);}.cls-6{fill:url(#linear-gradient-3);}.cls-7{fill:url(#linear-gradient-4);}.cls-8{fill:url(#New_Gradient_Swatch_2);}.cls-9{fill:#110e16;}.cls-10{fill:#535056;}.cls-11{fill:url(#New_Gradient_Swatch_74);}.cls-12{fill:#36333a;}.cls-13{fill:url(#New_Gradient_Swatch_74-2);}.cls-14{fill:#cfcdc0;}.cls-15{fill:#9e9e95;}.cls-16{fill:url(#New_Gradient_Swatch_74-3);}.cls-17{fill:url(#New_Gradient_Swatch_74-4);}.cls-18{fill:#e2e0ce;}.cls-19{fill:url(#New_Gradient_Swatch_114);}.cls-20{fill:url(#New_Gradient_Swatch_114-2);}.cls-21{opacity:0.5;}.cls-22{fill:url(#New_Gradient_Swatch_2-2);}.cls-23{fill:url(#New_Gradient_Swatch_2-3);}.cls-24{fill:url(#New_Gradient_Swatch_2-4);}.cls-25{fill:#ea7978;}.cls-26{fill:#e7605f;}.cls-27{opacity:0.2;}.cls-28{fill:#f9d24f;}.cls-29{fill:#f6c41b;}</style><linearGradient id="linear-gradient" x1="229.09" y1="218.29" x2="229.28" y2="218.29" gradientUnits="userSpaceOnUse"><stop offset="0" stop-color="#951f5e"/><stop offset="1" stop-color="#2f3082"/></linearGradient><linearGradient id="linear-gradient-2" x1="209.28" y1="119.57" x2="210.77" y2="119.57" xlink:href="#linear-gradient"/><linearGradient id="New_Gradient_Swatch_3" x1="21.67" y1="153.34" x2="246.85" y2="153.34" gradientUnits="userSpaceOnUse"><stop offset="0" stop-color="#951f5e"/><stop offset="1" stop-color="#2a3687"/></linearGradient><linearGradient id="linear-gradient-3" x1="210.78" y1="115.66" x2="211.49" y2="115.66" xlink:href="#linear-gradient"/><linearGradient id="linear-gradient-4" x1="103.85" y1="88.03" x2="104.53" y2="88.03" xlink:href="#linear-gradient"/><linearGradient id="New_Gradient_Swatch_2" x1="25.11" y1="258.53" x2="231.77" y2="258.53" gradientUnits="userSpaceOnUse"><stop offset="0" stop-color="#e46e2e"/><stop offset="1" stop-color="#d72829"/></linearGradient><linearGradient id="New_Gradient_Swatch_74" x1="199.32" y1="148.04" x2="218.36" y2="148.04" gradientTransform="translate(28.14 20.34) rotate(3.95)" gradientUnits="userSpaceOnUse"><stop offset="0" stop-color="gold"/><stop offset="0.49" stop-color="#fdc80a"/><stop offset="1" stop-color="#fbb317"/></linearGradient><linearGradient id="New_Gradient_Swatch_74-2" x1="9.26" y1="151.75" x2="26.12" y2="151.75" xlink:href="#New_Gradient_Swatch_74"/><linearGradient id="New_Gradient_Swatch_74-3" x1="127.6" y1="258.64" x2="188.08" y2="258.64" gradientTransform="matrix(1, 0, 0, 1, 0, 0)" xlink:href="#New_Gradient_Swatch_74"/><linearGradient id="New_Gradient_Swatch_74-4" x1="127.6" y1="267.02" x2="186.74" y2="267.02" gradientTransform="matrix(1, 0, 0, 1, 0, 0)" xlink:href="#New_Gradient_Swatch_74"/><linearGradient id="New_Gradient_Swatch_114" x1="257.28" y1="653.15" x2="257.28" y2="653.32" gradientTransform="matrix(-0.7, 0.72, 0.72, 0.7, -175.39, -426.31)" gradientUnits="userSpaceOnUse"><stop offset="0" stop-color="#e2e2e1"/><stop offset="0.25" stop-color="#d4d4d3"/><stop offset="0.71" stop-color="#afaeae"/><stop offset="1" stop-color="#959494"/></linearGradient><linearGradient id="New_Gradient_Swatch_114-2" x1="254.05" y1="654.74" x2="254.05" y2="654.85" xlink:href="#New_Gradient_Swatch_114"/><linearGradient id="New_Gradient_Swatch_2-2" x1="231.26" y1="218.01" x2="235.84" y2="218.01" gradientTransform="matrix(0.95, -0.3, 0.3, 0.95, -34.27, 9.55)" xlink:href="#New_Gradient_Swatch_2"/><linearGradient id="New_Gradient_Swatch_2-3" x1="-712.98" y1="884.73" x2="-726.65" y2="913.37" gradientTransform="matrix(0.17, 0.99, 0.99, -0.17, -682.02, 1092.43)" xlink:href="#New_Gradient_Swatch_2"/><linearGradient id="New_Gradient_Swatch_2-4" x1="101.47" y1="286.04" x2="169.01" y2="286.04" gradientTransform="matrix(0.95, -0.3, 0.3, 0.95, -34.27, 9.55)" xlink:href="#New_Gradient_Swatch_2"/></defs><title>loa_musica</title><ellipse class="cls-1" cx="159.05" cy="178.46" rx="26.66" ry="28.69" transform="translate(-77.31 214.23) rotate(-56.9)"/><ellipse class="cls-1" cx="90.88" cy="175.52" rx="20.14" ry="16.49" transform="translate(-105.78 155.79) rotate(-56.9)"/><path class="cls-2" d="M140.07,115.4H107.21v41.26h32.86c4.08,0,7.38-5,7.38-11.25V126.64C147.45,120.44,144.14,115.4,140.07,115.4Z"/><path class="cls-3" d="M229.09,217.27c0.07,0.65.13,1.32,0.15,2A5.21,5.21,0,0,0,229.09,217.27Z"/><path class="cls-4" d="M209.28,120.39a14.66,14.66,0,0,0,1.49-1.64C210.27,119.25,209.78,119.81,209.28,120.39Z"/><path class="cls-5" d="M246.85,153.8c-11,4.39-30.43-12.37-41-12.61,9.79-6.75,26.54,4,36.77-5-5.13,3.29-12.82,0-18.46-.5-4.61-.41-9.3-1-13.82-0.42-3.17.92-6.46,1.42-9.26,3.2a21.06,21.06,0,0,1,9.26-3.2,14.42,14.42,0,0,0,7.64-4.55c5.09-6.17.25-10.64,1.47-17.54-1.32,4.87-3.8,9.91-8,13.22-4.5,3.53-8,3.1-13.65,3a8.67,8.67,0,0,1-1.75,0l1.75,0c5.06-.4,8.28-5.21,11.5-9-5.39,5.11-12.82,4.11-19.63,4.77,6.63-4,16.09-3.62,21.13-9.09-4.11,3.58-18.92,3.79-23.2,3.13,5-4.29,11-5.81,13.56-9.72-4.94,4-15.52,3.71-19.77,8.41C184.31,107,186.62,99,177.79,90c5.92,7.64,1.82,21-6.83,22.29,2.09-3.84,1.72-10.44.74-14.69,0.51,10.63-9.54,10.75-16.62,13.88-0.4-5.11,3.32-9.65,3-15.83-2.53,8.62-11.23,6.93-15.07,13-0.18-9.85,7.22-17,12.19-24.9-3,4.34-8.26,6.37-12,10.05-4.34,4.32-6.36,9.32-9.28,15a35.2,35.2,0,0,0,.58-10.11c-5.67,1.43-5,14.78-10.68,12.81-0.36-9.16-1.15-23.77-10.85-27.08,3.38,5,15.54,25.35,4.5,28.64,0-1.88-.86-3.19-0.67-5.2-1.32,2.19-3,5.34-4.38,7.33,0.24-12.08-3-16.35-7.9-26.45,2.72,7.05,3.36,27.56-3.66,27.75-0.09-2.7.57-6.24,0-8.86-0.7-3.06-2.56-5.32-4-7.82,1.13,5.62-.56,13.67.7,18.81-2.17-5.06-9-8.41-13.59-10.77-6.22-3.18-11.84-7.65-17.21-11.07,4,3.75,9.56,9.41,12.63,14.2,2.7,4.21,2,10.11,4.59,13.56-4-3.15-6.2-5.78-11.61-7.33-4.21-1.21-8.64-1.1-12.09-3.65,4.76,6.88,18.09,11,21.21,18.65-6.35.66-11.91-2.58-18.08-3.49-7.52-1.11-16.18-1.1-23.57.85,9.38-.53,26.22,1,28.74,10.24-4.48-1-9.88-2-13.39-3.33,0.63,4,3.29,8,7.11,9.33-9.92,1.07-18.54-.79-28.78,2.81,6.68,0.55,13,2,19.81,2.43a15,15,0,0,1,3.9.16c-1.32,0-2.62-.07-3.9-0.16-9.4.67-24.19,7.65-27.7,13.93a65.32,65.32,0,0,1,12.8-3.41c4.9-.91,13,0.38,16.2-3.61-3,11.89-15.57,12.82-26.77,12.95,7,0,12.3,3.39,18.83,2.76-2.06,3.08-9.32,5.32-13.18,6.44,3.93-.14,7.68-0.14,11.17,1.47-5.43,2.06-12.26,1.54-17.5,4.25A29.69,29.69,0,0,0,22,189.76c6.11-2.11,14.07-1.1,19.78.95-0.51,4.69-11.17,9-14.25,14,5.29-1.84,10.78-4.14,15.65-6.17-3.71,7.65-13.52,11.12-21.46,13.75,9.91-.14,16.95-0.23,23.82-7.09a40,40,0,0,0,4.7-5.72c0.12,2.15.3,4.29,0.53,6.36,3.55,1,7.13,2.74,11.11,4.08,3.67,1.23,7.64,3.25,11.11,4.07,1.79,0.43,3.8,1.1,5.7,1.61,2.26,0.61,3.75.44,5.78,1,10.85,2.9,26.86,5,39,5.89,17.85,1.26,35-.21,50.6-1.81,5.54-.56,10.5-4,15.91-5.56,8.41-2.45,16.9-3.69,24.07-7a29.34,29.34,0,0,0,1.11-2.94,19.65,19.65,0,0,1,2.2,1c3.39,1.79,10.46,6.45,11.72,11.18-1-8.36-6.3-12-9.71-19.74,0.26,0.42.53,1.26,0.81,1.6,6.61,2.15,15.94,7,22.89,2-5.7-5.58-27.78-3-23.19-16.82,5.08,1.85,11.71,4.49,16.49,8.45-1.44-5.72-11.69-13.82-17.49-14.32,8,0,19.24,3,25.84-1.33-9.16.46-17-4.73-25.77-3.68,7.21-3.35,19.45-1.58,22.62-10.69-4.63,2.25-21.82,10.46-25.43,4,5.74-.68,8.07-0.47,12.27-4.6-8.05-.3-10-0.52-16.62-4.52a41.92,41.92,0,0,1,8.78-1.83c-3-1.72-4.6-4.54-8.32-4.42C223.64,151.52,235.21,160.3,246.85,153.8ZM99.44,122.22l-0.37-.28-0.31-.46A5,5,0,0,0,99.44,122.22ZM104.79,184c-1.59,4.2-8.94,10.61-15.92,10-15.28-1.33-7.21-28.91,5.18-31.11C102.89,161.29,108.59,173.94,104.79,184Zm74.45,10.74c-5,11.76-26.07,13.1-35.19,3-7.39-8.21-8.28-31.1,1.48-38.52a19.38,19.38,0,0,1,7.78-3.33c9.16-2,17.21,4.24,20.38,8.15C179.1,170.66,182.7,186.58,179.24,194.71Z"/><path class="cls-6" d="M211.49,115.26c-0.22.29-.47,0.55-0.71,0.81A3.52,3.52,0,0,0,211.49,115.26Z"/><path class="cls-7" d="M104.53,88.74a8.29,8.29,0,0,0-.68-1.41Z"/><path class="cls-8" d="M214.12,214.76c-1.38-.2,4.07-3.16,3.17-2.87,0.83-1.44-4.6,1.67-4.7.46-5.51,2.31-12.29,3.72-18.53,5.7-5.69,1.8-15.75,6.52-21.79,7.3-28.86,3.72-53.62,2-81-1.81-6.6-.92-12.65-4.7-19.1-5.87-6-3.16-14.62-4.83-21.07-7.51,0.12,0.28.23,0.58,0.34,0.9a18.17,18.17,0,0,0-3.1-.27l1.83,0.6c-9-.39-16.46,4.05-23.62,7.86,4.58,0.1,12.25,1.82,16.94,1.41,2.14-.61,4.06.67,6.39,0.86-2.18.29-4.43,0.52-6.7,0.71-7.64,2.19-13.92,8.82-18.11,15.27,5.56-7.26,17.34-4.15,25.1-7.75a33.56,33.56,0,0,0,4.27-3.33,11.3,11.3,0,0,1-4.27,3.33c-6.59,4.39-14,6.88-18.3,14.31,5.13-4.29,10.14-5.43,16.51-5.86,3.58-.24,8-0.46,9.07-3.06,0.67,3.83-2.34,4.83-4.17,7.64a27.65,27.65,0,0,0-3.82,11.49,21.26,21.26,0,0,1,12.81-13.64c-1.45,2.74-.93,5.42-1.78,8.19s-3,5.22-3.65,8.36c6.95-2.81,12.24-4.69,14-13.18-0.21,5.34.39,10.81-3.66,16.11,3.83-3,8.38-4.46,7.21-10.43,6.56,7.6-1.2,12.86,1.09,21,2.89-5.88,7.24-11,6.22-17.93,3.25,3.56,3.49,10.13,7.12,12.68a61,61,0,0,0,.21-10l0.43,0.19c2.26,5.72,6.89,10.77,13.39,11.18-2.5-1.33-6.09-5.62-6.4-8.21l0.53,0.21c3,1.78,8.14,4.71,10.47,3.25,0.45,0.11.89,0.25,1.34,0.36,0.89,11.21,3.36,22.82,4.08,33-6.55,0-17.15.63-14.81,8.14,1,3.16,14.26,4.09,20.74,2.59,1.91-.44,4.64-1.81,5.18-3.33-0.22-12.75-2.62-26.51-4.07-39.26,4.08,0.25,9.13-.49,12.59.37-0.39,3.62.42,8.47,0.74,11.48,1.08,10.24-.74,22.38,3.7,28.15,5.65,0.18,20.58,1.81,21.48-4.45,0.81-5.67-7.61-6.7-13.33-6.29-0.75-8.68,1.38-21.54,0-31.11,2.44-.48,4.79-1,7.13-1.62,0.25,1.09.77,2.49,1.46,4.51,0.28-1.53,1.38-2.4,1.5-4.29,2.56,1.18,3.53,4,3,6.83a51.94,51.94,0,0,0,6.64-8.45c0,4.33-.81,8.53-0.68,12.81,3.71-3,7.14-8.93,6.83-14.36a6.67,6.67,0,0,1,4.67-1.31c0.48,9.12.65,10.56,7.71,15.67-4.23-5.46-8.21-9.79-5.5-17,2.17,1.22,9.83,6.47,13.54,10.71-2.68-4.74-6.57-10.29-5.66-14.54,4.77,0.56,8.42,6.69,13.05,5.63-1.6-2.55-5.87-9.21-8.87-10.66,6.71,0.17,10.54,11.92,17.27,10.68-1.71-3.29-.08-6.81-1.29-10-1.08-2.88-4.91-5-6.24-7.78,2.74,0.78,5.82,1.24,8.28,3a13.53,13.53,0,0,0-3.39-8.08c6.88,0.7,8.64,6,14,9.73,4.39,3.06,7.65,2.64,13.13.93-3.42-.76-9-2.83-11.85-5.45-3.95-3.57-5.12-10.16-9.37-12.89,3.43,0,6.21,3,9.54,3.89s7.3,0.49,10.88.48c-7.86.23-10.94-8.08-18.39-9.67,5,0.14,15.94,2.24,19.23-1.75"/><path class="cls-9" d="M159.79,171.8c13.29-3.12,12.77,21.94,1.26,21.5C150.43,192.89,149.54,174.21,159.79,171.8Z"/><path class="cls-9" d="M91.39,185.3a4.18,4.18,0,0,1-1.29-.79c-3.6-4.38-1.37-14.37,5.74-12.58C102,173.48,102,187.18,91.39,185.3Z"/><path class="cls-10" d="M234.19,164l-14.31,37.92c10.93,0.46,20.71-2.74,25.67-15.88C249.72,175,244.56,168.06,234.19,164Z"/><path class="cls-11" d="M216.12,203.48a1.53,1.53,0,0,1-.72-0.25,1.62,1.62,0,0,1,.29-1.26c0.1-.23.22-0.48,0.31-0.74l14.46-38.31c0.09-.26.17-0.52,0.24-0.75a1.87,1.87,0,0,1,.63-1.19,1.68,1.68,0,0,1,.81,0c2,0.36,5.31,2.09,4.93,3.1l-14.46,38.31c-0.38,1-4.5,1.43-6.5,1.08h0Z"/><path class="cls-12" d="M216.46,200.4c-1,2.56-5,4.05-9.1,3.34h0c-4.06-.72-6.57-3.38-5.6-5.94L215.63,161c1-2.57,5-4.06,9.1-3.34h0c4.06,0.72,6.57,3.38,5.6,5.94Z"/><path class="cls-12" d="M245.05,184.32c-0.73,2-3.85,3.1-6.95,2.55s-5-2.58-4.28-4.53,3.84-3.1,6.95-2.54S245.79,182.38,245.05,184.32Z"/><path class="cls-10" d="M31.13,153.79L38,193.07c-10.89-.95-19.93-5.36-22.32-19C13.69,162.66,20.11,156.47,31.13,153.79Z"/><path class="cls-13" d="M41.42,195.09a1.6,1.6,0,0,0,.76-0.16,1.62,1.62,0,0,0,0-1.28c-0.06-.25-0.13-0.5-0.17-0.76L35,153.2c-0.05-.27-0.08-0.53-0.1-0.77a1.74,1.74,0,0,0-.4-1.26,1.8,1.8,0,0,0-.8-0.09c-2,.09-5.64,1.38-5.46,2.43l7,39.69c0.18,1.05,4.17,2,6.21,1.89h0Z"/><path class="cls-12" d="M41.67,192c0.46,2.66,4.21,4.65,8.35,4.46h0c4.15-.19,7.13-2.5,6.67-5.14L50,153.24c-0.47-2.65-4.2-4.65-8.35-4.46h0c-4.15.19-7.13,2.49-6.67,5.15Z"/><path class="cls-12" d="M16.5,172.47c0.36,2,3.21,3.55,6.38,3.4s5.44-1.9,5.09-3.93-3.21-3.55-6.37-3.4S16.15,170.44,16.5,172.47Z"/><path class="cls-14" d="M29.26,138.52s2-12.22,6.54-20.35l6.35,0.78S33.21,131.64,36,139.16Z"/><path class="cls-14" d="M22.42,174.66c0.27,0.06.54,0.11,0.81,0.15a8.06,8.06,0,0,0,4-.41,3.07,3.07,0,0,0,2.07-2L35.7,144c0.35-1.55-1.25-3.09-3.82-3.68-0.26-.06-0.53-0.11-0.81-0.15-2.95-.39-5.65.69-6,2.4L18.6,171c-0.35,1.54,1.25,3.09,3.82,3.67h0Z"/><path class="cls-10" d="M21.51,139.48c0.13,3,4.4,5.45,9.54,5.48s9.19-2.35,9.06-5.34-4.4-5.44-9.54-5.48S21.37,136.49,21.51,139.48Z"/><path class="cls-14" d="M241.58,149.35s0.85-12.31-1.79-21l-6.42-.14S239.27,142,234.83,149Z"/><path class="cls-14" d="M240.06,185.87a6.64,6.64,0,0,1-.83,0,7.76,7.76,0,0,1-3.82-1,2.74,2.74,0,0,1-1.57-2.25L234,153.77c0-1.57,1.94-2.87,4.6-3.08l0.84,0c3,0,5.4,1.48,5.39,3.22l-0.17,28.91c0,1.57-1.95,2.87-4.6,3.08h0Z"/><path class="cls-10" d="M249,151.39c-0.81,2.92-5.57,4.72-10.63,4s-8.5-3.62-7.68-6.54,5.57-4.73,10.63-4S249.79,148.47,249,151.39Z"/><path class="cls-12" d="M227.88,123.39s2.93,5.59,2.7,8.38c0,0,8,5.7,11.77.88,0,0-1.53-43.47-103.47-50.36,0,0-88.76-6.67-106,39.24a11.68,11.68,0,0,0,12.92-.74S53,98,92.71,92.69c0,0,64.8-10.62,112.73,11.45C205.44,104.14,221.12,111,227.88,123.39Z"/><path class="cls-15" d="M92.28,85.58A47.45,47.45,0,0,0,80,90.19S71.73,94,81,99.36a22,22,0,0,0,13.17.35,253.94,253.94,0,0,1,48.69-2.77s28,2.34,41.29,7c0,0,24.89,9,24.92-3.87,0,0-.53-2.83-9.16-5.86-15.27-5.92-33.26-9.73-61-11.42C138.94,82.83,112.92,81.09,92.28,85.58Z"/><path class="cls-14" d="M92.46,83.48a47.58,47.58,0,0,0-12.3,4.61s-8.26,3.77,1,9.18a22,22,0,0,0,13.17.34A253.27,253.27,0,0,1,143,94.85s28,2.34,41.29,7c0,0,24.89,9,24.92-3.87,0,0-.53-2.84-9.15-5.87-15.27-5.91-33.26-9.72-61-11.41C139.11,80.74,113.09,79,92.46,83.48Z"/><path class="cls-10" d="M228,121.5s2.93,5.59,2.7,8.38c0,0,8,5.7,11.77.87,0,0-1.53-43.46-103.47-50.35,0,0-88.76-6.68-106,39.24a11.67,11.67,0,0,0,12.92-.74s7.27-22.76,46.95-28.11c0,0,64.8-10.61,112.73,11.45C205.59,102.24,221.27,109.14,228,121.5Z"/><path class="cls-10" d="M228.32,265.57a0.69,0.69,0,0,0-.88.42l-0.94,4.09a0.71,0.71,0,0,0,.63.77,0.69,0.69,0,0,0,.89-0.4l0.05-.17,0.5,0.12c0.73,0.53,1.44,1.07,2.17,1.59a7.61,7.61,0,0,0,1.35-5.87c-0.88.14-1.76,0.31-2.64,0.49l-0.53-.13,0-.16A0.71,0.71,0,0,0,228.32,265.57ZM127.55,233.87s5.11,1.46,6.62-4.71-3.89-12.77-9.3-14.47-7.81-2.64-6.66-6.59,12.32-8.42,31.35,3.85S169,222,185.11,220.21s36.76-5.93,42.8,13.91-2.93,68.29-25.75,69.19S166.88,285.4,161.1,282.4s-9.33-4.41-16.76-2.89-22.51.51-25.82-7.62c-0.87-2.15,2.35-4.54,5.56-3.92s20.3-1.52,12.54-16.48c0,0-67.25-19.81-72.4-21.08s-10.56.58-12.51,2.74-4.48.29-5.89-.42-12.07-6.15-13.4-6.49-2-1.2-4.44,1.55-9.23,2.3-11.85-1.35-0.6-11.08,7.73-11.31,34.33-1.05,36.69-1.35,3,1.61,3.41,2.61,0.22,2.7,5.55,4S127.55,233.87,127.55,233.87Zm-74-23.08A2.3,2.3,0,1,1,55.47,213,2.13,2.13,0,0,1,53.53,210.78Zm2,4,0.12-3,1.1,0-0.12,3Zm-8.46-3.66A2.3,2.3,0,1,1,49,213.4,2.14,2.14,0,0,1,47.09,211.13Zm2,4,0.12-3,1.11,0.05-0.15,3Zm-8.41-3.81a2.3,2.3,0,1,1,1.93,2.27A2.12,2.12,0,0,1,40.7,211.32Zm2,4,0.14-3,1.1,0.05-0.12,3Zm-8.46-3.92a2.29,2.29,0,0,1,4.46.73A2.29,2.29,0,0,1,34.24,211.4Zm2,4,0.11-3,1.12,0-0.13,3Zm-8.39-3.56a2.3,2.3,0,0,1,4.48.74,2.11,2.11,0,0,1-2.54,1.53A2.12,2.12,0,0,1,27.86,211.85Zm2,4,0.13-3,1.1,0.05-0.12,3Zm-8.78-3.76a2.13,2.13,0,0,1,2.56-1.53,2,2,0,1,1-.63,3.8A2.13,2.13,0,0,1,21.08,212.12Zm2,4,0.13-3,1.1,0-0.12,3Zm95-4a0.57,0.57,0,0,0,.51-0.58L118,208.3a0.55,0.55,0,0,0-.69-0.36,0.57,0.57,0,0,0-.53.57l0,0.13-0.42.08-2.06-.49a6,6,0,0,0,.83,4.69l1.76-1.16,0.42-.08,0,0.13A0.6,0.6,0,0,0,118.07,212.18Z"/><path class="cls-12" d="M62.89,226L227,268l-0.49,2.13a0.71,0.71,0,0,0,.63.77h0c-3.93,16.79-12.33,32-25,32.46-22.8.9-35.28-17.91-41.06-20.92s-9.33-4.41-16.76-2.89-22.51.51-25.82-7.62c-0.87-2.15,2.35-4.54,5.56-3.92s20.3-1.52,12.54-16.48c0,0-67.25-19.81-72.4-21.08a14.25,14.25,0,0,0-2.65-.38Z"/><path class="cls-12" d="M232,269.24a7.53,7.53,0,0,1-1.27,2.76c-0.73-.52-1.44-1.06-2.17-1.59l-0.5-.12-0.05.17a0.68,0.68,0,0,1-.85.4q0.32-1.34.59-2.7Z"/><path class="cls-16" d="M138.85,269.13a12.68,12.68,0,0,1-8.57,2.76,3.13,3.13,0,0,0-2,.55,1.22,1.22,0,0,0-.67.88c2.89,5.28,14.35,4.78,19.69,3,6.38-2.08,9.83-1.08,14.76.81a27.24,27.24,0,0,1,5.25,3.36c6.3,4.63,9.65,7.74,17.58,8.32,0.71,0.05,3.76-1.75.1-5.17a13.06,13.06,0,0,1-4.19-8.46c-1.14-7.72,11.41-27.77,5.87-35.86-8.1-11.82-17.13,3.91-34.75-4.32,0,0-19.21-20.46-14,10.6C139,249.24,147.49,262.09,138.85,269.13Z"/><path class="cls-17" d="M180.79,275.22a13.06,13.06,0,0,0,4.19,8.46c3.66,3.42.61,5.22-.1,5.17-7.93-.58-11.28-3.69-17.58-8.32a27.24,27.24,0,0,0-5.25-3.36c-4.93-1.89-8.38-2.89-14.76-.81-5.34,1.75-16.8,2.24-19.69-3a1.22,1.22,0,0,1,.67-0.88,3.13,3.13,0,0,1,2-.55,12.68,12.68,0,0,0,8.57-2.76c8.64-7,.14-19.89-1-23.48,0-.16,0-0.31-0.08-0.47l47.6,12.16C183.1,264.36,180.22,271.35,180.79,275.22Z"/><rect class="cls-18" x="191.56" y="257.36" width="20.03" height="7.91" transform="translate(-99.95 395.5) rotate(-76.34)"/><path class="cls-19" d="M115.17,212.91c0-.05-0.06-0.13-0.1-0.18l0.29,0.06Z"/><path class="cls-20" d="M118.55,211.43l0,0.16a0.23,0.23,0,0,1,0,.07l-0.08-.08S118.52,211.48,118.55,211.43Z"/><polygon class="cls-1" points="200.25 254.05 200.3 253.83 64.66 220.28 64.6 220.5 200.25 254.05"/><polygon class="cls-1" points="199.37 256.72 199.43 256.51 64.15 222 64.1 222.22 199.37 256.72"/><polygon class="cls-1" points="198.69 259.02 198.75 258.8 63.65 223.73 63.59 223.94 198.69 259.02"/><polygon class="cls-1" points="198.02 261.32 198.08 261.1 63.14 225.45 63.08 225.67 198.02 261.32"/><polygon class="cls-1" points="196.93 263.68 196.99 263.46 62.91 226.75 62.85 226.97 196.93 263.68"/><polygon class="cls-1" points="196.79 266.74 196.85 266.52 62.38 228.04 62.32 228.25 196.79 266.74"/><rect class="cls-21" x="57.42" y="223.89" width="11.68" height="0.56" transform="translate(-169.66 221.67) rotate(-73.63)"/><path class="cls-22" d="M252.53,146.12c1.26-.85,2.79-0.41,4.34-0.77-1.36.64-2.78,1.26-4.21,1.86"/><path class="cls-23" d="M73.91,244.57c-2.8-3.67-4.9-9.31-7.43-13.35l0.65,0.13a12.73,12.73,0,0,1-.53-2.05l0.61,1.16c-1.28-6,.88-11.54,2.63-16.79,0.58,3.07,2.6,8,2.86,11.25-0.17,1.51.91,2.66,1.3,4.21-0.05-1.5-.15-3-0.27-4.6,0.62-5.39,4.37-10.37,8.25-13.91-4.27,4.56-.84,12.14-2.39,17.78a22.7,22.7,0,0,1-1.76,3.25,7.71,7.71,0,0,0,1.76-3.25c2.21-4.93,3.05-10.21,7.58-13.94-2.31,3.94-2.52,7.44-2.09,11.78,0.24,2.44.6,5.46-1,6.46,2.65,0,3-2.12,4.68-3.67A18.9,18.9,0,0,1,96,225.16a14.53,14.53,0,0,0-7.75,10.17c1.68-1.28,3.54-1.23,5.32-2.12s3.18-2.61,5.22-3.4c-1.11,5-1.78,8.77-7.3,10.94,3.57-.75,7.33-1,10.44-4.28-1.56,2.92-2.06,6.15-6.21,6,5.86,3.56,8.53-2.25,14.3-1.64-3.63,2.61-6.6,6.12-11.38,6.21,2.76,1.79,7.21,1.21,9.34,3.36a41.72,41.72,0,0,1-6.69,1.27l0.17,0.26"/><path class="cls-24" d="M190.42,217.65c-16,1.8-25.44,8.68-30.19,8.28,0.13,0.16.27,0.33,0.41,0.51a12.54,12.54,0,0,0-2.07.47h1.31c-6,1.63-9.86,6.06-13.72,10,3-.89,8.35-1.37,11.31-2.61,1.26-.85,2.79-0.41,4.34-0.77-1.36.64-2.78,1.26-4.21,1.86-4.51,3-7.22,8.64-8.6,13.7,2.1-5.88,10.41-6.31,14.71-10.27a22.62,22.62,0,0,0,2.08-3.06,7.71,7.71,0,0,1-2.08,3.06c-3.37,4.22-7.68,7.39-8.92,13.12,2.45-3.86,5.46-5.64,9.52-7.25,2.28-.9,5.13-2,5.27-3.88,1.23,2.35-.52,3.63-1.12,5.84a18.88,18.88,0,0,0-.09,8.27,14.53,14.53,0,0,1,5.49-11.54c-0.37,2.09.53,3.72,0.55,5.7s-0.86,4-.63,6.2c3.93-3.27,7-5.6,6.38-11.49,1,3.52,2.5,7,1,11.24,1.88-2.72,4.52-4.65,2.51-8.28,5.85,3.58,1.9,8.62,5.09,13.46,0.65-4.43,2.42-8.66.31-13,2.85,1.64,4.38,5.86,7.27,6.76-0.36-2.1,17.56-28.74,13.1-37.52a56.74,56.74,0,0,0-11.2-.07"/><path class="cls-25" d="M65.64,20.52A3.68,3.68,0,0,0,62,16.85H61.65L29.4,24.22a3.68,3.68,0,0,0-3.26,3.65V67.76A14,14,0,0,0,17.55,69c-5.66,2.66-8.77,8-6.94,11.86s7.9,4.89,13.56,2.23c4.92-2.31,7.91-6.63,7.41-10.27a1.78,1.78,0,0,1,.07.49V39.91l28.47-6.77V60a14,14,0,0,0-8.67,1.25c-5.66,2.66-8.77,8-6.94,11.86s7.9,4.89,13.56,2.23c4-1.87,6.7-5.07,7.32-8.15A3.61,3.61,0,0,0,65.64,66V20.52Z"/><path class="cls-26" d="M62,16.85H61.65L43.58,21V37.07l16.54-3.93V60a14,14,0,0,0-8.67,1.25c-5.66,2.66-8.77,8-6.94,11.86s7.9,4.89,13.56,2.23c4-1.87,6.7-5.07,7.32-8.15A3.61,3.61,0,0,0,65.64,66V20.52A3.68,3.68,0,0,0,62,16.85Z"/><path class="cls-27" d="M12.53,83.09c-1.83-3.89,1.28-9.21,6.94-11.87A14,14,0,0,1,28.07,70V30.07a3.68,3.68,0,0,1,3.26-3.65L63.58,19h0.31a3.64,3.64,0,0,1,1.56.36A3.67,3.67,0,0,0,62,16.85H61.65L29.4,24.22a3.68,3.68,0,0,0-3.26,3.65V67.76A14,14,0,0,0,17.55,69c-5.66,2.66-8.77,8-6.94,11.86a5.71,5.71,0,0,0,2,2.27Z"/><path class="cls-27" d="M46.44,75.45c-1.83-3.89,1.28-9.21,6.94-11.87a14,14,0,0,1,8.67-1.25V32.78l-1.93.46v26.9a14,14,0,0,0-8.67,1.25c-5.66,2.66-8.77,8-6.94,11.87a5.71,5.71,0,0,0,2,2.27Z"/><path class="cls-28" d="M32.83,10.75l3.62-.88V2.41A2.41,2.41,0,0,0,34,0h-0.2L12.68,4.84a2.42,2.42,0,0,0-2.14,2.4V33.41a9.2,9.2,0,0,0-5.64.83C1.18,36-.86,39.46.34,42s5.19,3.21,8.9,1.47c3.23-1.52,5.19-4.35,4.86-6.74a1.16,1.16,0,0,1,0,.32V15.13l18.68-4.44v0.06Z"/><path class="cls-27" d="M1.61,43.46c-1.2-2.55.84-6,4.56-7.79a9.19,9.19,0,0,1,5.64-.83V8.68a2.42,2.42,0,0,1,2.14-2.4L35.1,1.44h0.2a2.39,2.39,0,0,1,1,.23A2.41,2.41,0,0,0,34,0h-0.2L12.68,4.84a2.42,2.42,0,0,0-2.14,2.4V33.41a9.2,9.2,0,0,0-5.64.83C1.18,36-.86,39.46.34,42A3.76,3.76,0,0,0,1.63,43.5Z"/><path class="cls-29" d="M34,0h-0.2L21.74,2.77V13.33l11.1-2.64v0.06l3.62-.88V2.41A2.41,2.41,0,0,0,34,0Z"/></svg>